<svg id="Layer_1" data-name="Layer 1" xmlns="http://www.w3.org/2000/svg" viewBox="0 0 495.24 85.32"><defs><style>.cls-1{fill:#fff;}</style></defs><title>Furman University Bell Tower Wordmark-White</title><path class="cls-1" d="M86.94,105.32H57.17l28-7.94V95.61h3.17v1.77l28,7.94Zm21.93,3.74H64.65v-2.52h44.22Zm-5,1.31h3.13v30.25h-3.13Zm-29,30.25h-4v-4.76h4Zm15,0H83.61v-4.76h6.26Zm12.75,0h-4v-4.76h4Zm-2.08-6V118.72h0c0-.1,0-.2,0-.3a6,6,0,0,0-12,0c0,.1,0,.2,0,.3h0v15.86h-3.6V118.72h0c0-.1,0-.2,0-.3a6,6,0,0,0-12,0c0,.1,0,.2,0,.3h0v15.86H70.87V110.37h31.77v24.21ZM66.46,110.37h3.13v30.25H66.46Zm42.41,34H64.65v-2.52h44.22ZM86.76,90.82A1.74,1.74,0,1,1,85,92.56a1.74,1.74,0,0,1,1.75-1.74m0-11.18v0l1.52,9.66H85.23Zm0-2.56a42.53,42.53,0,0,0-20.3,80V145.53h3.13v13c.42.19.85.37,1.28.54V145.53h31.77v13.58c.43-.17.86-.35,1.28-.54v-13h3.13v11.53a42.53,42.53,0,0,0-20.29-80" transform="translate(-44.1 -77.08)"/><path class="cls-1" d="M88.54,162.4a42.51,42.51,0,0,0,12-2.24v-6h0c0-.1,0-.2,0-.3a6,6,0,0,0-12,0c0,.1,0,.2,0,.3h0Z" transform="translate(-44.1 -77.08)"/><path class="cls-1" d="M72.94,160.15a42.87,42.87,0,0,0,12,2.25v-8.25h0c0-.1,0-.2,0-.3a6,6,0,0,0-12,0c0,.1,0,.2,0,.3h0Z" transform="translate(-44.1 -77.08)"/><path class="cls-1" d="M176.56,97.24h-1.43c-.25,3.5-1.76,4.26-4.86,4.26H158.61v-19H177c5.19,0,6.87,2,7,6.69h1.47V79.41h-40V81c5.87.09,6.29,2.45,6.29,7.67v31.95c0,6.6-1,8.62-6.17,8.94v1.55H165.9v-1.55c-6.29,0-7.29-2.67-7.29-7.23v-17.9h10.57c4,0,5.78,0,5.95,4.71h1.43Zm61.82-17.83V81c7,.33,8.21,1.72,8.21,9.54v19c0,13.86-9.63,17.69-19.11,17.69-12.49,0-19.11-6.6-19.11-17.61V86.9c0-4.72,2-6,6.62-6h.76V79.41H194.21V81c5.7.09,7.2.9,7.2,6.12v23.8c0,11.65,8.22,20.54,24.23,20.54,18.19,0,24.81-10.84,24.81-21v-22c0-5.21,2-7.41,7.62-7.5V79.41Zm42.83,29.26c1.34.08,2.43.16,4.27.16,2.27,0,3.6-.08,5.7-.16a61.09,61.09,0,0,1,8.63,7.25l5.54,5.38c7.45,7.25,11.23,10.35,25.89,9.7v-1.47c-6.45-.41-11.56-3.42-16.51-8.23l-6.62-6.44a101,101,0,0,0-9.55-8.48c6.87-1.95,11.14-7.08,11.14-13.2,0-8.31-6.95-14.51-22.46-14.51-5.45,0-7.12.08-10.56.25s-8.55.49-10.56.49V81H268c4.87,0,6.29,1.47,6.29,6.53v34.31c0,5.46-1.76,7.72-6.71,7.72h-1.42v1.55h23.72v-1.55h-1.93c-4.69,0-6.7-2.18-6.7-7.07Zm0-28.28a33.81,33.81,0,0,1,4.19-.17c12.9,0,16.43,5.87,16.43,13.45,0,9.78-6.12,13.61-15.43,13.61a37.94,37.94,0,0,1-5.19-.16Zm86.22,50.67,20.87-44.4h.17l2.43,36.51c.33,4.32-3.52,6.34-7.46,6.34v1.55H405v-1.55c-6.12,0-6.79-1-7.29-8.46L395,84.13c-.16-2.77,1.43-2.85,5.54-3.18V79.49H388.21L368.1,120.57,347.9,79.49H335.25V81c5.19.33,5.36,1.8,5,7.18l-2,31.7c-.42,7.42-1.17,9.68-7.29,9.68v1.55h17.44v-1.55c-3.78-.16-7-1.06-6.71-5.21L344,86.66h.17l21.37,44.4Zm79.09-23.45,5.61,14.83a8.82,8.82,0,0,1,.92,3.34c0,2.29-1.76,3.73-6.53,3.73h-2.18v1.55h23.05v-1.55c-4.19,0-6-1.77-7.63-6.09L442.24,78.18H435l.75,1.8-15.25,40.51c-2.68,7.09-3.6,8.94-9.05,9v1.55h19.36v-1.55h-1.34c-4.61,0-6.79-1.77-6.79-4,0-1.14,1.09-3.59,1.68-5.14l4.86-12.79ZM445.09,104h-14.5l7.13-19Zm86.63,27.61V85.2c0-3.18,1.33-4.25,7.62-4.25V79.41H519.73V81c6.7.17,8.21,1.07,8.21,6v32.43l-39.47-40H475.31V81a12.65,12.65,0,0,1,7,2v40.1c0,3.75-1.68,6.42-6.87,6.42h-.34v1.55h19.44v-1.55c-7.12,0-8.46-2.18-8.46-8v-35l43.42,45.13Z" transform="translate(-44.1 -77.08)"/><path class="cls-1" d="M146.38,143.19h8.27V144c-2.15,0-2.56.47-2.56,2.51v7.83c0,3.88,2.59,5.65,6.23,5.65,3.24,0,6.27-1.39,6.27-5.71v-7.77c0-2.28-.44-2.51-2.8-2.51v-.79h7.05V144c-2.21,0-2.65.47-2.65,2.51v8.09c0,4.58-3.53,7.2-8.83,7.2-5.53,0-8.5-2.65-8.5-7.4v-8.19c0-1.77-.47-2.21-2.48-2.21Z" transform="translate(-44.1 -77.08)"/><path class="cls-1" d="M196.28,146.49v11.18c0,2.27.29,3,2.92,2.86v.78h-7v-.78c2.1.06,2.45-.61,2.45-2.51V144.91a3.73,3.73,0,0,0-2.45-.93v-.79h5.28l13,13.72V146.49c0-2.19-.35-2.54-2.88-2.51v-.79h7V144c-2,0-2.57.35-2.57,2.56v15h-1.57Z" transform="translate(-44.1 -77.08)"/><path class="cls-1" d="M238.64,143.19h8.13V144c-2,0-2.51.44-2.51,2.51v11.33c0,2.18.41,2.77,2.51,2.71v.78h-8.13v-.78c2.3.06,2.39-.85,2.39-2.51V146.16c0-1.57-.38-2.21-2.39-2.18Z" transform="translate(-44.1 -77.08)"/><path class="cls-1" d="M273.42,146.22c-.81-2-1.13-2.24-3-2.24v-.79h9V144c-2.39,0-2.8.64-2.8,1.25a5.23,5.23,0,0,0,.47,1.75l4.4,10.81,4.28-10.31a6.39,6.39,0,0,0,.67-2.25c0-1-.76-1.25-2.62-1.25v-.79h7.08V144c-2.07,0-2.45,1.08-3.38,3.32l-6,14.48h-1.78Z" transform="translate(-44.1 -77.08)"/><path class="cls-1" d="M313.89,161.31v-.78c2.36,0,2.94-.38,2.94-2V146c0-1.92-1-2-2.94-2v-.79h14.89l.26,4.37h-.79l-.14-.61c-.59-2.39-1.05-2.45-2.92-2.45h-5.12v6.79h4.51c1.69,0,2-.2,2.19-2.21h.78v5.85h-.78c-.21-2.06-.59-2.33-2.19-2.33h-4.51v5.31c0,1.8.23,2.09,1.71,2.09H325c2.94,0,3.52-.4,4.31-3.26h.79l-.44,4.57Z" transform="translate(-44.1 -77.08)"/><path class="cls-1" d="M359.22,157.64c0,2.51.32,3,3,2.89v.78h-8.91v-.78c2.44.09,2.71-.59,2.71-2.51V146.34c0-1.89-.32-2.36-2.71-2.36v-.79c.67,0,2.15-.11,4.16-.2,1.55-.06,3-.06,3.56-.06,5.88,0,7.89,2.56,7.89,5.22q0,3.22-3.67,4.74c.47.33,1.72,1.55,2.19,2l1.89,1.9c2.59,2.59,4.57,3.76,7,4v.82c-5.74.14-7.17-.88-9.79-3.5L365,156.6a21.88,21.88,0,0,0-3.15-2.8,14.93,14.93,0,0,1-2.59,0Zm0-4.66c.2,0,.76.09.93.09,3.88-.18,5.22-1.66,5.22-4.63s-1.58-4.69-4.75-4.69a10.2,10.2,0,0,0-1.4.11Z" transform="translate(-44.1 -77.08)"/><path class="cls-1" d="M399.54,156.54h.87c.73,2.68,2.54,4.19,5,4.19,2.13,0,3.62-1.25,3.62-3,0-4.08-9.18-5.68-9.18-10.75,0-2.5,2.21-4.25,5.33-4.25a10.56,10.56,0,0,1,2.24.23,7.76,7.76,0,0,0,1.55.23.9.9,0,0,0,.81-.35h.73l.64,4.52h-.87a5.21,5.21,0,0,0-4.75-3.7c-1.87,0-2.86,1.11-2.86,2.39,0,3.9,9.21,5.07,9.21,10.69,0,3-2.53,5-6.26,5a26.84,26.84,0,0,1-3.91-.52.9.9,0,0,0-.78.32h-.7Z" transform="translate(-44.1 -77.08)"/><path class="cls-1" d="M436.59,143.19h8.13V144c-2,0-2.5.44-2.5,2.51v11.33c0,2.18.41,2.77,2.5,2.71v.78h-8.13v-.78c2.31.06,2.39-.85,2.39-2.51V146.16c0-1.57-.37-2.21-2.39-2.18Z" transform="translate(-44.1 -77.08)"/><path class="cls-1" d="M469.08,142.7h.78a.69.69,0,0,0,.47.41,8.21,8.21,0,0,0,1.43.08h12.32c1.49,0,1.72-.06,1.89-.49h.79l.53,5h-.85c-.41-3-1-3.21-2.74-3.21h-4.16v13.73c0,2,.32,2.3,3.38,2.3v.78h-10v-.78c2.92,0,3.38-.38,3.38-2.3V144.5h-4.16c-1.72,0-2.3.18-2.74,3.21h-.85Z" transform="translate(-44.1 -77.08)"/><path class="cls-1" d="M514.2,146.34c-1.45-2.1-1.83-2.27-3.64-2.36v-.79h8.77V144c-1.57,0-2,.32-2,.85,0,.37.23.87,1,1.95l3.82,5.44,3.32-5.27a4.94,4.94,0,0,0,1-2.07c0-.64-.55-.9-1.86-.9v-.79h6.84V144c-2.12.23-2.65.61-4.51,3.61l-3.94,6.35V158c0,2.16.35,2.54,2.77,2.54v.78h-8.8v-.78c2.22,0,2.8-.21,2.8-2.62v-3.7Z" transform="translate(-44.1 -77.08)"/></svg>